# xmcd
#
# Track frame offsets: 
#        180
#        13264
#        28473
#        39335
#        52304
#        64322
#        92014
#        114587
#        126358
#        139659
#        152763
#        173384
#        189756
#        203933
#        220864
#        232718
#
# Disc length: 3342 seconds
#
# Revision: 2
# Processed by: cddbd v1.5.1PL0 Copyright (c) Steve Scherf et al.
# Submitted via: ExactAudioCopy v0.95a3
#
DISCID=de0d0c10
DTITLE=Francis Goya - The Very Best Of
DYEAR=1900
DGENRE=
TTITLE0=Nostalgia
TTITLE1=Theme from 'The deerhunter'
TTITLE2=Concierto d'aranjuez
TTITLE3=Bilitis
TTITLE4=Ballade pour Adeline
TTITLE5=Who pays the ferryman
TTITLE6=Unchained melody
TTITLE7=La comparsa
TTITLE8=Once upon a time in the west
TTITLE9=Concierto pour une voix
TTITLE10=Zorba's dance
TTITLE11=Elvira Madigan
TTITLE12=Sleepy shores
TTITLE13=Greensleeves
TTITLE14=Are you lonesome tonight
TTITLE15=Exodus
EXTD=
EXTT0=
EXTT1=
EXTT2=
EXTT3=
EXTT4=
EXTT5=
EXTT6=
EXTT7=
EXTT8=
EXTT9=
EXTT10=
EXTT11=
EXTT12=
EXTT13=
EXTT14=
EXTT15=
PLAYORDER=
